<svg xmlns="http://www.w3.org/2000/svg" xmlns:xlink="http://www.w3.org/1999/xlink" width="742.417" height="712.573" xmlns:v="https://vecta.io/nano"><path d="M624.815 168.892h-3.9V61.915C620.915 27.72 593.195 0 559 0H332.35c-16.421 0-32.169 6.523-43.781 18.134s-18.135 27.359-18.135 43.78v586.884c0 34.195 27.72 61.915 61.915 61.915h226.648c34.195 0 61.915-27.72 61.915-61.915V245.04h3.9z" fill="#3f3d56"/><path d="M608.215 57.768v595.175c-.004 25.925-21.017 46.943-46.942 46.952h-231.3c-25.936.004-46.965-21.016-46.973-46.952V57.768c.008-25.935 21.036-46.954 46.971-46.951h28.058a22.33 22.33 0 0 0 20.656 30.74h131.868a22.33 22.33 0 0 0 20.656-30.74h30.055c25.925.004 46.942 21.017 46.951 46.942z" fill="#fff"/><circle cx="445.565" cy="200.129" r="96.565" fill="#f5222d"/><g fill="#e6e6e6"><path d="M550.881 400.596H345.344a3.81 3.81 0 0 1-3.806-3.806v-50.984a3.81 3.81 0 0 1 3.806-3.806h205.537a3.81 3.81 0 0 1 3.806 3.806v50.985a3.81 3.81 0 0 1-3.806 3.806zm-205.537-57.074c-1.261.001-2.283 1.023-2.284 2.284v50.985c.001 1.261 1.023 2.283 2.284 2.284h205.537c1.261-.001 2.283-1.023 2.284-2.284v-50.985c-.001-1.261-1.023-2.283-2.284-2.284zm63.564 16.839c-1.472 0-2.664 1.193-2.664 2.664s1.193 2.664 2.664 2.664h125.605c1.471.056 2.709-1.09 2.765-2.561s-1.09-2.709-2.561-2.765q-.059-.002-.117-.002H408.908zm0 15.984c-1.472 0-2.664 1.193-2.664 2.665s1.193 2.664 2.664 2.664h125.605c1.471.056 2.709-1.09 2.765-2.561s-1.09-2.709-2.561-2.765q-.058-.002-.117-.002H408.908zm141.973 109.231H345.344a3.81 3.81 0 0 1-3.806-3.806v-50.984a3.81 3.81 0 0 1 3.806-3.806h205.537a3.81 3.81 0 0 1 3.806 3.806v50.985a3.81 3.81 0 0 1-3.806 3.805zm-205.537-57.074c-1.261.001-2.283 1.023-2.284 2.284v50.985c.001 1.261 1.023 2.283 2.284 2.284h205.537c1.261-.001 2.283-1.023 2.284-2.284v-50.985c-.001-1.261-1.023-2.283-2.284-2.284z"/><use xlink:href="#B"/><use xlink:href="#B" y="15.988"/><path d="M550.881 570.834H345.344a3.81 3.81 0 0 1-3.806-3.806v-50.984a3.81 3.81 0 0 1 3.806-3.806h205.537a3.81 3.81 0 0 1 3.806 3.806v50.985a3.81 3.81 0 0 1-3.806 3.806zM345.344 513.76c-1.261.001-2.283 1.023-2.284 2.284v50.985c.001 1.261 1.023 2.283 2.284 2.284h205.537c1.261-.001 2.283-1.023 2.284-2.284v-50.985c-.001-1.261-1.023-2.283-2.284-2.284z"/><use xlink:href="#C"/><use xlink:href="#C" y="15.987"/><path d="M740.479 712.573H1.938c-1.071 0-1.938-.468-1.938-1.045s.868-1.045 1.938-1.045h738.541c1.07 0 1.938.468 1.938 1.045s-.867 1.045-1.938 1.045zm-31.278-40.765c-6.417 2.256-13.546 1-18.806-3.313-6.587-5.528-8.652-14.636-10.332-23.07l-4.97-24.945 10.405 7.165c7.483 5.152 15.134 10.47 20.316 17.933s7.443 17.651 3.28 25.726"/></g><path d="M707.594 703.745c1.31-9.542 2.657-19.206 1.738-28.849-.816-8.565-3.429-16.93-8.749-23.789-2.824-3.634-6.259-6.747-10.153-9.2-1.015-.641-1.95.968-.939 1.606a37.62 37.62 0 0 1 14.881 17.956c3.24 8.241 3.76 17.224 3.2 25.977-.338 5.294-1.053 10.553-1.774 15.805-.118.493.166.993.65 1.144.495.133 1.005-.157 1.144-.65z" fill="#f2f2f2"/><path d="M698.167 688.435c-2.752 4.183-7.487 6.627-12.491 6.447-6.323-.3-11.595-4.713-16.34-8.9l-14.035-12.395 9.289-.444c6.68-.32 13.533-.618 19.9 1.442s12.231 7.018 13.394 13.6" fill="#e6e6e6"/><path d="M711.295 709.23c-6.3-11.156-13.618-23.555-26.685-27.518a29.78 29.78 0 0 0-11.224-1.159c-1.192.1-.894 1.94.3 1.837 6.338-.526 12.664 1.147 17.912 4.739 5.051 3.438 8.983 8.217 12.311 13.286 2.039 3.1 3.865 6.341 5.691 9.573.58 1.032 2.286.287 1.695-.758z" fill="#f2f2f2"/><circle cx="370.986" cy="370.985" r="15.986" fill="#f5222d"/><use xlink:href="#D" fill="#e6e6e6"/><circle cx="370.986" cy="456.278" r="15.986" fill="#f5222d"/><use xlink:href="#D" y="85.293" fill="#e6e6e6"/><circle cx="370.986" cy="541.536" r="15.986" fill="#f5222d"/><use xlink:href="#D" y="170.551" fill="#e6e6e6"/><g fill="#fff"><path d="M419.048 179.269l5.657-5.657 47.376 47.376-5.657 5.657z"/><path d="M466.425 173.613l5.657 5.657-47.376 47.376-5.657-5.657z"/></g><path d="M90.259 456.135a10.06 10.06 0 0 0 6.067-5.966c1.04-2.788.791-5.894-.679-8.482l23.565-26.864-18.395-2.538-19.558 25.899a10.11 10.11 0 0 0 9 17.95zm28.42 238.08l-16.435-.001-7.819-63.394 24.257.001-.003 63.394z" fill="#9f616a"/><path d="M122.871 710.147l-52.995-.002v-.67c.001-11.392 9.235-20.626 20.627-20.627h.001l32.367.001z" fill="#2f2e41"/><path fill="#9f616a" d="M204.713 680.461l-15.696 4.873-26.266-58.224 23.166-7.192 18.796 60.543z"/><path d="M213.441 694.433l-50.612 15.713-.199-.64c-3.377-10.879 2.703-22.437 13.582-25.816h.001l30.912-9.597z" fill="#2f2e41"/><path d="M106.093 401.943L81.752 429.82l19.056 1.715z" fill="#e6e6e6"/><path d="M96.582 437.876s-8.455 4.227-9.512 23.251 3.171 68.7 3.171 68.7-4.227 22.194 0 42.274-4.227 93 1.057 93 32.762 3.171 33.819 0 2.114-50.729 2.114-50.729 8.455-24.308 0-39.1c0 0 29.521 51.548 48.615 90.889 4.179 8.61 35.933-1.057 30.649-10.569s-17.966-52.843-17.966-52.843-9.512-31.706-26.421-45.445l8.455-67.639s17.967-45.445 7.4-51.786-81.381-.003-81.381-.003z" fill="#2f2e41"/><circle cx="128.287" cy="238.129" r="27.478" fill="#a0616a"/><path d="M158.936 267.721l-34.16 20.08s-13.08 7.366-17.966 20.08c-5.208 13.55-2.181 32.628 0 36.99 4.227 8.455-1.773 29.592-1.773 29.592l-5.284 48.615s-19.023 17.966-4.227 20.08 41.217-1.057 57.07 0 33.819 3.171 28.535-7.4-11.625-17.967-5.284-39.1c4.962-16.54 4.747-78.383 4.419-104.5-.092-7.292-3.956-14.016-10.211-17.767z" fill="#e5e5e5"/><path d="M143.616 301.013l3.17 64.468-30.726 62.223-5.211-1.983 31.706-58.127zm34.872 78.206v-7.4l-35.929 59.186z" opacity=".1"/><path d="M108.785 212.674l-4.539-1.816s9.5-10.457 22.713-9.548l-3.717-4.092s9.085-3.637 17.345 5.91c4.342 5.019 9.365 10.919 12.5 17.564h4.865l-2.03 4.471 7.106 4.471-7.294-.8a24.74 24.74 0 0 1-.69 11.579l.2 3.534s-8.459-13.089-8.459-14.905v4.547s-4.543-4.092-4.543-6.82l-2.478 3.183-1.239-5-15.28 5 2.476-4.094-9.5 1.364 3.717-5s-10.737 5.91-11.15 10.912-5.781 11.366-5.781 11.366l-2.478-4.547s-3.716-20.459 8.256-27.279z" fill="#2f2e41"/><path d="M126.563 459.125c2.585-1.475 4.383-4.019 4.911-6.948s-.268-5.941-2.174-8.226l18.423-30.62-18.554.768-14.65 28.96a10.11 10.11 0 0 0 12.043 16.067z" fill="#9f616a"/><path d="M168.449 281.462l7.926-1.585s23.779 17.438 16.381 52.314-40.16 87.719-40.16 87.719-7.4 9.512-9.512 11.625-6.341 0-4.227 3.171-3.171 5.284-3.171 5.284-23.251 0-21.137-8.455 38.047-68.7 38.047-68.7l-5.284-56.013s-4.229-27.474 21.137-25.36z" fill="#e5e5e5"/><defs ><path id="B" d="M408.908 445.617c-1.472 0-2.664 1.193-2.664 2.664s1.193 2.664 2.664 2.664h125.605c1.449-.008 2.626-1.173 2.65-2.621s-1.115-2.651-2.563-2.707H408.908z"/><path id="C" d="M408.908 530.878c-1.472 0-2.664 1.193-2.664 2.664s1.193 2.664 2.664 2.664h125.605c1.471.056 2.709-1.09 2.765-2.561s-1.09-2.709-2.561-2.765q-.058-.002-.117-.002H408.908z"/><path id="D" d="M363.333 367.999c-.184 0-.333 1.193-.333 2.664s.149 2.665.333 2.665h15.719c.184.024.336-1.149.339-2.62.102-.916-.01-1.843-.328-2.708h-15.73z"/></defs></svg>