<svg xmlns="http://www.w3.org/2000/svg" xmlns:xlink="http://www.w3.org/1999/xlink" width="752.317" height="636.208" viewBox="0 0 752.317 536.208" xmlns:v="https://vecta.io/nano"><path d="M49.863 536.208h652.553c.689 0 1.247-.558 1.247-1.247s-.558-1.247-1.247-1.247H49.863c-.689 0-1.247.558-1.247 1.247s.558 1.247 1.247 1.247z" fill="#ccc"/><g fill="#f0f0f0"><use xlink:href="#B"/><use xlink:href="#C"/><path d="M652.724 351.82l-.797-2.358c42.599-14.403 69.243-37.605 77.052-67.099 9.926-37.494-11.638-81.004-60.72-122.514-49.332-41.721-120.47-76.339-200.312-97.476l.637-2.406c80.191 21.23 151.675 56.027 201.282 97.982 49.857 42.165 71.706 86.576 61.52 125.051-8.032 30.34-35.233 54.137-78.661 68.82zm-391.16 16.693c-93.592-41.509-165.711-95.362-203.072-151.639l2.073-1.377c37.103 55.888 108.844 109.421 202.007 150.741z"/><use xlink:href="#D"/><path d="M536.321 44.193a885.28 885.28 0 0 0-47.292-13.938C397.466 6.015 307.458-2.592 228.733 5.37l-.25-2.477c79.019-7.988 169.335.639 261.184 24.955 15.956 4.225 31.913 8.927 47.425 13.978z"/><use xlink:href="#B" x="-58.492" y="3.733"/><use xlink:href="#C" x="-58.492" y="3.733"/><path d="M594.232 355.554l-.797-2.358c42.599-14.403 69.243-37.605 77.052-67.099 9.926-37.494-11.638-81.003-60.72-122.514-49.332-41.721-120.47-76.339-200.312-97.476l.637-2.406c80.191 21.23 151.675 56.027 201.282 97.982 49.857 42.165 71.706 86.576 61.52 125.051-8.032 30.34-35.233 54.137-78.661 68.82zm-391.16 16.693C109.48 330.738 37.361 276.885 0 220.608l2.073-1.377c37.103 55.888 108.844 109.421 202.007 150.741z"/><use xlink:href="#D" x="-58.492" y="3.734"/><path d="M477.829 47.926a885.27 885.27 0 0 0-47.292-13.938C338.974 9.748 248.966 1.142 170.24 9.104l-.25-2.477c79.019-7.988 169.335.639 261.184 24.955 15.956 4.225 31.913 8.927 47.425 13.978z"/></g><path d="M42.424 171.179c17.887-20.054 46.419-32.277 72.275-24.96a123.81 123.81 0 0 0-48.314 69.939c-2.794 10.918-4.764 23.353-13.844 30.028-5.65 4.154-13.136 5.146-20.084 4.2s-13.518-3.648-20-6.326l-1.744.151c5.014-26.4 13.824-52.978 31.711-73.032z" fill="#f2f2f2"/><g fill="#fff"><path d="M114.62 146.777c-21.618 5.234-41.037 17.147-55.499 34.046a45.57 45.57 0 0 0-7.684 12.034c-1.726 4.337-2.258 9.057-1.543 13.669.581 4.314 1.674 8.66 1.196 13.04-.562 4.527-3.03 8.6-6.783 11.193-4.541 3.316-10.002 4.802-15.393 6.07-5.986 1.408-12.225 2.775-17.104 6.753-.591.482-1.304-.464-.714-.945 8.489-6.921 20.287-6.032 29.679-11.059 4.383-2.346 8.085-6.026 8.985-11.077.787-4.416-.337-8.899-.962-13.262a27.89 27.89 0 0 1 1.011-13.422 42.13 42.13 0 0 1 7.193-12.285c6.797-8.344 14.863-15.568 23.904-21.407a107.7 107.7 0 0 1 33.574-14.525c.739-.179.874.999.14 1.176z"/><path d="M63.458 175.108a15.88 15.88 0 0 1-.489-20.553c.481-.591 1.422.13.94.721-4.569 5.624-4.359 13.738.494 19.118.51.566-.438 1.277-.945.714zm-14.146 29.27a30.6 30.6 0 0 0 21.261-6.732c.593-.48 1.306.466.714.945a31.83 31.83 0 0 1-22.138 6.96c-.762-.053-.595-1.226.163-1.173zm42.142-49.425a8.99 8.99 0 0 0 7.253 4.486c.762.043.594 1.216-.163 1.173a10.07 10.07 0 0 1-8.034-4.944.61.61 0 0 1 .115-.829c.261-.195.631-.144.829.115z"/></g><path d="M151.403 229.47l-1.436-.032c-6.409-.147-12.818.227-19.166 1.118l-1.479.206c-15.271 2.31-29.98 7.435-43.38 15.115a121.17 121.17 0 0 0-15.222 10.356c-6.634 5.294-13.406 11.561-21.173 14.274a20.79 20.79 0 0 1-2.469.724l-36.045-24.904c-.054-.098-.113-.188-.167-.285l-1.485-.928.715-.648c.135-.125.278-.245.414-.37.093-.082.186-.163.265-.242.031-.027.062-.054.087-.074.079-.079.161-.144.234-.215q2.068-1.833 4.169-3.644c.006-.008.006-.008.019-.011 10.586-9.299 22.238-17.309 34.711-23.862l1.146-.569c5.631-2.825 11.484-5.185 17.499-7.057 3.297-1.014 6.644-1.861 10.027-2.537a85 85 0 0 1 26.557-1.018c17.644 2.106 34.418 9.832 45.353 23.547l.825 1.056z" fill="#f2f2f2"/><g fill="#fff"><path d="M151.006 229.872c-20.412-8.836-43.089-11.016-64.81-6.23a45.57 45.57 0 0 0-13.381 4.982c-3.989 2.424-7.256 5.872-9.462 9.985-2.134 3.794-3.877 7.922-6.896 11.132-3.175 3.276-7.597 5.042-12.155 4.853-5.622-.086-10.877-2.188-15.945-4.421-5.627-2.48-11.432-5.144-17.723-4.906-.762.029-.762-1.155-.001-1.184 10.945-.415 19.83 7.398 30.356 9.039 4.912.766 10.084.056 13.843-3.435 3.287-3.052 5.089-7.308 7.216-11.168a27.89 27.89 0 0 1 8.888-10.108 42.13 42.13 0 0 1 13.14-5.478 102.67 102.67 0 0 1 31.975-2.7 107.7 107.7 0 0 1 35.552 8.616c.698.302.097 1.324-.597 1.023z"/><path d="M93.099 221.689a15.88 15.88 0 0 1 11.984-16.705c.74-.182 1.057.96.316 1.142-7.034 1.739-11.752 8.344-11.116 15.562.066.759-1.119.756-1.184.001zm-28.918 14.853a30.6 30.6 0 0 0 21.029 7.425c.762-.026.763 1.158.001 1.184a31.83 31.83 0 0 1-21.867-7.771c-.576-.501.263-1.337.836-.838zm63.405-14.09a8.99 8.99 0 0 0 3.09 7.948c.583.493-.258 1.328-.836.838a10.07 10.07 0 0 1-3.438-8.785.61.61 0 0 1 .591-.593c.326.001.591.265.593.591z"/></g><path d="M743.282 335.575c-10.106-24.899-32.87-46-59.681-47.8a123.81 123.81 0 0 1 21.997 82.108c-1.039 11.222-3.362 23.595 2.946 32.934 3.925 5.811 10.642 9.262 17.504 10.706s13.958 1.107 20.962.764l1.592.729c4.15-26.55 4.786-54.542-5.32-79.442z" fill="#f2f2f2"/><g fill="#fff"><path d="M683.487 288.328c18.601 12.195 32.886 29.942 40.827 50.718a45.57 45.57 0 0 1 3.193 13.917c.168 4.665-.917 9.289-3.141 13.392-1.997 3.868-4.487 7.593-5.509 11.879-.992 4.453-.037 9.118 2.627 12.822 3.162 4.649 7.806 7.884 12.457 10.89 5.164 3.338 10.581 6.723 13.84 12.109.395.653 1.384.002.99-.65-5.669-9.371-17.079-12.5-24.236-20.391-3.339-3.682-5.589-8.393-4.739-13.452.743-4.424 3.308-8.268 5.364-12.167a27.89 27.89 0 0 0 3.559-12.981 42.13 42.13 0 0 0-2.646-13.988 102.67 102.67 0 0 0-15.319-28.196 107.7 107.7 0 0 0-26.739-24.964c-.636-.417-1.159.647-.527 1.061z"/><path d="M722.151 332.205a15.88 15.88 0 0 0 7.369-19.193c-.255-.718-1.383-.356-1.128.363 2.413 6.832-.512 14.404-6.891 17.84-.671.362-.017 1.35.65.99zm3.486 32.322a30.6 30.6 0 0 1-17.762-13.486c-.397-.651-1.387-.001-.99.65a31.83 31.83 0 0 0 18.511 13.996c.735.206.972-.954.241-1.16zm-23.079-60.713c-2.302 1.96-5.435 2.632-8.338 1.787-.732-.216-.968.946-.241 1.16a10.07 10.07 0 0 0 9.229-1.956.61.61 0 0 0 .17-.82c-.18-.272-.546-.348-.82-.17z"/></g><path d="M621.051 353.847l1.363.452c6.085 2.016 11.996 4.522 17.676 7.495l1.323.691c13.606 7.308 25.737 17.079 35.776 28.816a121.17 121.17 0 0 1 10.856 14.869c4.469 7.216 8.741 15.395 15.144 20.56.662.546 1.357 1.051 2.082 1.512l42.318-11.34c.083-.074.17-.139.253-.213l1.71-.376-.456-.851c-.085-.163-.18-.324-.265-.488-.06-.108-.12-.216-.168-.317a1.68 1.68 0 0 0-.057-.098c-.048-.101-.103-.19-.148-.281q-1.332-2.422-2.702-4.833c-.003-.01-.003-.01-.015-.017a178.16 178.16 0 0 0-24.671-34.14c-.289-.305-.58-.621-.889-.921a115.63 115.63 0 0 0-14.109-12.528c-2.765-2.063-5.632-3.986-8.591-5.759a85 85 0 0 0-24.67-9.884c-17.325-3.946-35.72-2.308-50.629 6.934l-1.132.717z" fill="#f2f2f2"/><g fill="#fff"><path d="M621.29 354.359c22.194-1.462 44.285 4.107 63.134 15.915a45.57 45.57 0 0 1 10.928 9.19c2.942 3.623 4.86 7.969 5.555 12.584.734 4.291.989 8.764 2.753 12.802 1.889 4.153 5.46 7.302 9.817 8.656 5.324 1.808 10.979 1.595 16.503 1.195 6.133-.444 12.496-1.003 18.341 1.336.708.283 1.107-.832.399-1.115-10.169-4.069-21.163.303-31.628-1.69-4.883-.93-9.516-3.336-11.883-7.887-2.07-3.98-2.337-8.593-3.043-12.944a27.89 27.89 0 0 0-4.973-12.507 42.13 42.13 0 0 0-10.535-9.576 102.67 102.67 0 0 0-29.207-13.29 107.7 107.7 0 0 0-36.38-3.834c-.759.05-.536 1.214.218 1.164z"/><path d="M678.579 366.114a15.88 15.88 0 0 0-5.672-19.761c-.636-.42-1.318.549-.682.969 6.04 4.002 8.263 11.808 5.239 18.393-.317.693.799 1.088 1.115.399zm22.243 23.709a30.6 30.6 0 0 1-22.301-.074c-.709-.281-1.108.834-.399 1.115a31.83 31.83 0 0 0 23.207.03c.711-.278.201-1.347-.506-1.071zm-54.981-34.581c-.658 2.951-2.755 5.374-5.582 6.447-.714.269-.204 1.338.506 1.071a10.07 10.07 0 0 0 6.191-7.118.61.61 0 0 0-.358-.757c-.308-.109-.646.051-.757.358z"/></g><circle cx="211.224" cy="134.241" r="9.956" fill="#fd6584"/><g fill="#e6e6e6"><circle cx="806.332" cy="422.726" r="9.956" transform="matrix(.160182 -.987087 .987087 .160182 36.06272 969.03618)"/><circle cx="210.819" cy="22.2" r="9.956"/></g><path d="M507.891 139.358h-2.842v-77.85c0-24.885-20.173-45.057-45.057-45.058H295.056a45.06 45.06 0 0 0-45.058 45.057h0v427.092c0 24.885 20.173 45.058 45.057 45.058h164.936c24.885 0 45.058-20.173 45.058-45.057V194.773h2.842z" fill="#3f3d56"/><path d="M495.455 61.82v426.466a33.64 33.64 0 0 1-33.637 33.646H296.077c-18.581.001-33.645-15.061-33.646-33.642V61.82c-.001-8.923 3.544-17.481 9.853-23.791s14.866-9.855 23.789-9.855h20.117c-2.011 4.929-1.437 10.536 1.532 14.954s7.943 7.069 13.266 7.07h94.494a15.99 15.99 0 0 0 14.798-22.024h21.529c8.923 0 17.481 3.544 23.79 9.853s9.855 14.867 9.855 23.789h0z" fill="#ffffff"/><path d="M274.99 68.884h51.414v2.301H274.99zm78.246 0h51.414v2.301h-51.414z" fill="#fff"/><g fill="#ccc"><use xlink:href="#E"/><path d="M459.546 374.36H291.947a4.3 4.3 0 1 1 0-8.6h167.599a4.3 4.3 0 1 1 0 8.6z"/><use xlink:href="#E" y="59.836"/></g><path d="M431.482 68.884h51.414v2.301h-51.414zM274.99 481.979h51.414v2.301H274.99zm78.246 0h51.414v2.301h-51.414zm78.246 0h51.414v2.301h-51.414z" fill="#fff"/><circle cx="378.943" cy="207.6" r="77.934" fill="#d1d3d4"/><circle cx="378.943" cy="211.054" r="71.1" fill="#52c41a"/><path d="M372.736 238.92c-.154 0-.309-.004-.464-.011a9.47 9.47 0 0 1-7.018-3.648l-11.206-14.406a9.49 9.49 0 0 1 1.661-13.3l.401-.313c4.134-3.208 10.084-2.466 13.304 1.659 1.018 1.31 2.557 2.11 4.214 2.19 1.659.097 3.276-.551 4.408-1.768l22.752-24.018a9.49 9.49 0 0 1 13.398-.363l.37.35a9.49 9.49 0 0 1 .364 13.4l-35.307 37.268a9.46 9.46 0 0 1-6.877 2.96z" fill="#fff"/><path d="M245.216 98.529h9.205v49.479h-9.205zm0 55.233h9.205v28.767h-9.205zm0 34.521h9.205v28.767h-9.205z" fill="#3f3d56"/><circle cx="333.819" cy="35.242" r="4.603" fill="#fff"/><path d="M378.943 272.304c-37.32-.005-68.283-28.867-70.905-66.095a71.92 71.92 0 0 0-.195 5.005c0 39.267 31.832 71.1 71.1 71.1s71.1-31.832 71.1-71.1a71.92 71.92 0 0 0-.195-5.005c-2.622 37.228-33.585 66.09-70.905 66.095z" fill="#231f20" opacity=".16"/><path d="M479.182 268.426l56.383 2.301 6.904-37.973-48.329-14.958-14.958 50.63zm21.31-82.245l.546-17.94-27.326-6.851-49.199-14.353a10.27 10.27 0 1 0-5.482 12.555l47.83 19.661z" fill="#ffb8b8"/><path d="M482.884 186.055l15.372-21.925.384.051c.241.032 24.348 3.257 40.153 7.963 3.595.953 6.588 3.441 8.181 6.802a13.25 13.25 0 0 1-1.843 14.41c-3.486 4.331-9.182 6.223-14.567 4.84z" fill="#52c41a"/><path d="M492.621 518.459l-15.637-.001-7.439-60.313 23.078.001-.002 60.313zm121.753-6.769l-15.461 2.337-16.372-58.524 20.269-3.449 11.564 59.636z" fill="#ffb8b8"/><path d="M537.866 259.22l-54.082-9.205-1.924 3.965a183.65 183.65 0 0 0-17.997 68.212c-1.306 19.996-2.074 41.115-2.099 63.254a988 988 0 0 0 4.478 95.089l29.682-.186c-.857-30.748.31-61.519 3.495-92.114a700.44 700.44 0 0 1 9.083-61c6.776 27.606 16.339 54.452 28.543 80.124 10.373 21.936 31.708 47.292 42.081 69.227q15.943-1.913 31.886-3.826c-8.376-22.151-23.319-54.498-31.695-76.649-11.976-31.672-17.386-53.147-29.363-84.819.683-5.954.817-11.958.399-17.936-.558-9.964-2.631-21.922-8.689-29.893z" fill="#2f2e41"/><path d="M546.222 242.711c2.701 5.048-3.714 15.507-8.355 16.509l-53.481-17.288 26.929-78.033 13.549 2.462 21.668 3.651 7.686 6.986c3.955 3.598 5.416 9.19 3.727 14.263z" fill="#52c41a"/><path d="M509.405 212.554l-15.13-9.655-19.878 19.963-37.522 34.909a10.27 10.27 0 0 0-10.583 16.006 10.27 10.27 0 0 0 18.56-4.868l41.38-31.015z" fill="#ffb8b8"/><path d="M500.28 227.614l-10.961-24.431.24-.303c.151-.191 15.266-19.246 27.401-30.411 2.659-2.6 6.329-3.897 10.031-3.544a13.26 13.26 0 0 1 11.433 8.962 14.17 14.17 0 0 1-3.301 14.989z" fill="#52c41a"/><circle cx="534.372" cy="134.9" r="23.786" fill="#ffb8b8"/><g fill="#2f2e41"><path d="M553.581 169.366l-.091-.023-34.565-8.645a7.9 7.9 0 0 1-4.857-11.733l1.142-1.9a12.96 12.96 0 0 0 .53-12.379c-1.637-3.174-4.454-5.58-7.845-6.701l-.115-.055-.726-.452c-1.443-.681-2.531-1.939-2.998-3.464-.485-1.581-.277-3.293.572-4.712a28.6 28.6 0 0 1 13.064-11.517c6.881-2.962 14.631-3.195 21.678-.651a3.85 3.85 0 0 1 3.54-.9c17.901 4.335 19.374 16.351 15.838 35.638l4.186 16.882a8.46 8.46 0 0 1-7.546 10.47zm-14.402-62.043l-.002.002zm.432-.106l.003.001z"/><use xlink:href="#F"/><use xlink:href="#F" x="120.432"/></g><defs ><path id="B" d="M175.237 234.113c-38.164-37.569-54.282-76.764-45.388-110.362 11.415-43.116 62.124-72.928 139.125-81.79l.284 2.473c-75.929 8.738-125.865 37.881-137.003 79.953-8.656 32.698 7.228 71.036 44.728 107.952z"/><path id="C" d="M543.453 367.473c-47.631 0-99.39-7.078-150.802-20.689-63.577-16.831-121.871-42.236-168.578-73.47l1.383-2.069c46.483 31.082 104.518 56.371 167.832 73.132 57.216 15.148 114.861 22.167 166.682 20.315l.09 2.487q-8.209.295-16.608.294z"/><path id="D" d="M590.624 440.424q-14.48 0-29.455-.647l.107-2.487c74.502 3.226 140.237-5.69 190.11-25.788l.931 2.309c-43.506 17.53-98.957 26.612-161.692 26.612z"/><path id="E" d="M459.546 344.442H291.947a4.3 4.3 0 0 1-3.724-6.45 4.3 4.3 0 0 1 3.724-2.15h167.599a4.3 4.3 0 0 1 3.724 6.45 4.3 4.3 0 0 1-3.724 2.15z"/><path id="F" d="M496.431 534.094h-8.924l-1.593-8.426-4.08 8.426h-23.669a5.32 5.32 0 0 1-3.023-9.699l18.902-13.054v-8.518l19.881 1.187z"/></defs></svg>